<svg id="visual" viewBox="0 0 128 128" width="128" height="128" xmlns="http://www.w3.org/2000/svg" xmlns:xlink="http://www.w3.org/1999/xlink" version="1.1"><g transform="translate(64.79633765936872 73.40757050417682)"><path d="M31.7 -60.1C37.8 -51.5 37.1 -36.2 39.7 -25.1C42.2 -14 48.1 -7 53 2.8C57.9 12.7 61.9 25.3 58.1 34.4C54.4 43.5 42.9 49 32 49.4C21 49.7 10.5 44.9 -0.1 45C-10.7 45.1 -21.3 50.3 -32.9 50.3C-44.4 50.3 -56.9 45.1 -60.2 35.9C-63.5 26.7 -57.8 13.3 -55.3 1.4C-52.9 -10.5 -53.7 -21 -49.6 -28.9C-45.5 -36.9 -36.5 -42.3 -27.4 -49.2C-18.3 -56.1 -9.2 -64.5 1.8 -67.7C12.8 -70.9 25.7 -68.8 31.7 -60.1" fill="#2b7365aa"></path></g></svg>
