<svg id="visual" viewBox="0 0 128 128" width="128" height="128" xmlns="http://www.w3.org/2000/svg" xmlns:xlink="http://www.w3.org/1999/xlink" version="1.1"><g transform="translate(69.34553748871873 61.249088554512724)"><path d="M23.3 -38.7C33.3 -34.6 46.5 -34.5 50.3 -28.8C54.2 -23 48.6 -11.5 46.3 -1.3C44 8.8 44.9 17.7 44.2 28.8C43.4 39.9 41 53.3 33.3 58.2C25.7 63.1 12.8 59.6 2.2 55.8C-8.5 52.1 -17 48.1 -25.4 43.6C-33.7 39.1 -42 34.1 -47.1 26.7C-52.2 19.3 -54.1 9.7 -57.3 -1.8C-60.4 -13.3 -64.9 -26.7 -60.5 -35.3C-56.2 -44 -43.1 -48 -31.5 -51.1C-20 -54.3 -10 -56.7 -1.7 -53.8C6.7 -50.9 13.3 -42.8 23.3 -38.7" fill="#2b7365aa"></path></g></svg>
