<svg id="visual" viewBox="0 0 128 128" width="128" height="128" xmlns="http://www.w3.org/2000/svg" xmlns:xlink="http://www.w3.org/1999/xlink" version="1.1"><g transform="translate(65.08796780729145 66.09923694831866)"><path d="M32.6 -51C43.6 -50.2 54.7 -44.1 57.3 -34.7C59.9 -25.3 53.9 -12.7 52.1 -1.1C50.2 10.5 52.4 21 49.8 30.4C47.2 39.8 39.9 48 30.8 51.4C21.7 54.9 10.8 53.4 1 51.7C-8.8 50 -17.7 47.9 -23.4 42.6C-29.2 37.3 -31.9 28.6 -35 21C-38.1 13.3 -41.5 6.7 -47.3 -3.3C-53.1 -13.3 -61.2 -26.7 -60 -37.6C-58.9 -48.6 -48.4 -57.2 -36.9 -57.7C-25.3 -58.2 -12.7 -50.6 -0.9 -49C10.8 -47.4 21.7 -51.9 32.6 -51" fill="#2b7365aa"></path></g></svg>
