<svg id="visual" viewBox="0 0 128 128" width="128" height="128" xmlns="http://www.w3.org/2000/svg" xmlns:xlink="http://www.w3.org/1999/xlink" version="1.1"><g transform="translate(71.05695896745013 57.04127159018638)"><path d="M27.7 -44.4C38.1 -42 50.2 -39 54.9 -31.5C59.6 -24 56.8 -12 53.9 -1.7C51 8.7 48 17.3 42.4 23.1C36.7 28.9 28.3 31.8 20.8 36.8C13.3 41.8 6.7 48.9 -3.2 54.5C-13.2 60.1 -26.3 64.3 -36.6 60.9C-46.8 57.4 -54.2 46.5 -60.9 35.1C-67.7 23.7 -73.8 11.8 -70.7 1.8C-67.5 -8.2 -55 -16.3 -45.9 -23.7C-36.8 -31.1 -31.1 -37.6 -24.1 -41.9C-17 -46.1 -8.5 -48.1 0.1 -48.2C8.7 -48.3 17.3 -46.7 27.7 -44.4" fill="#2b7365aa"></path></g></svg>
