<svg id="visual" viewBox="0 0 128 128" width="128" height="128" xmlns="http://www.w3.org/2000/svg" xmlns:xlink="http://www.w3.org/1999/xlink" version="1.1"><g transform="translate(55.733143260324404 73.0552044490057)"><path d="M31 -54.7C41.7 -47.6 52.9 -42.3 54.5 -33.5C56.1 -24.7 48 -12.3 48.3 0.2C48.6 12.7 57.2 25.3 55.9 34.6C54.5 43.8 43.3 49.6 32.3 51C21.3 52.3 10.7 49.1 1.6 46.4C-7.5 43.7 -15 41.3 -20.8 37C-26.5 32.6 -30.6 26.3 -33.8 19.8C-37.1 13.3 -39.5 6.7 -39.5 0C-39.5 -6.7 -37.1 -13.3 -34.2 -20.4C-31.3 -27.5 -27.9 -35 -22.1 -45C-16.3 -55 -8.2 -67.5 1 -69.2C10.2 -70.9 20.3 -61.9 31 -54.7" fill="#2b7365aa"></path></g></svg>
