<svg id="visual" viewBox="0 0 128 128" width="128" height="128" xmlns="http://www.w3.org/2000/svg" xmlns:xlink="http://www.w3.org/1999/xlink" version="1.1"><g transform="translate(64.98026405378373 56.16522815988325)"><path d="M21.3 -34.3C29.2 -32.3 38.4 -29.9 45.1 -24.1C51.8 -18.3 55.9 -9.2 55.9 0C55.9 9.2 51.8 18.3 48.3 29.6C44.8 40.8 41.9 54.2 33.9 58.3C26 62.4 13 57.2 -0.2 57.5C-13.3 57.8 -26.7 63.5 -36 60.3C-45.4 57 -50.9 44.8 -51.4 33.2C-51.9 21.7 -47.4 10.8 -49.5 -1.2C-51.5 -13.2 -59.9 -26.3 -57.4 -34.4C-54.9 -42.5 -41.5 -45.5 -30.1 -45.6C-18.7 -45.7 -9.3 -42.8 -1.3 -40.5C6.7 -38.2 13.3 -36.4 21.3 -34.3" fill="#2b7365aa"></path></g></svg>
