<svg id="visual" viewBox="0 0 3849 2160" width="3849" height="2160" xmlns="http://www.w3.org/2000/svg" xmlns:xlink="http://www.w3.org/1999/xlink" version="1.1"><g><g transform="translate(2278 1450)"><path d="M120.3 -34C136.5 10.5 116.6 71.8 78 97.5C39.5 123.2 -17.8 113.2 -58.4 83.1C-99.1 52.9 -123.1 2.5 -110.6 -37C-98.1 -76.5 -49 -105.2 1.5 -105.7C52.1 -106.2 104.2 -78.5 120.3 -34Z" fill="none" stroke="#15151515" stroke-width="20"></path></g><g transform="translate(357 234)"><path d="M42.1 -13.9C47.7 3.6 40.7 25 26 35.7C11.3 46.3 -11.1 46.2 -25.8 35.6C-40.4 24.9 -47.4 3.6 -41.8 -13.8C-36.2 -31.3 -18.1 -45 0.1 -45C18.2 -45 36.5 -31.4 42.1 -13.9Z" fill="none" stroke="#15151515" stroke-width="20"></path></g><g transform="translate(3032 1242)"><path d="M55 -19.6C62 3.7 52 30.7 32.5 44.9C13.1 59 -15.8 60.3 -35 46.7C-54.2 33.1 -63.7 4.7 -56.2 -19.3C-48.8 -43.2 -24.4 -62.6 -0.2 -62.5C24 -62.5 48 -42.9 55 -19.6Z" stroke="#15151515" fill="none" stroke-width="20"></path></g><g transform="translate(465 721)"><path d="M61.8 -20.9C71.3 9.2 64.1 43.8 41.3 61.5C18.4 79.2 -20.1 80 -44.9 62C-69.6 43.9 -80.6 7.1 -70.8 -23.3C-61 -53.8 -30.5 -77.8 -2.2 -77.1C26.1 -76.3 52.3 -50.9 61.8 -20.9Z" stroke="#15151515" fill="none" stroke-width="20"></path></g><g transform="translate(3106 367)"><path d="M26.2 -9.4C29.3 1.1 24 13.5 15.2 19.6C6.3 25.8 -6.2 25.7 -15.6 19.4C-25.1 13 -31.5 0.4 -28.3 -10.1C-25.2 -20.6 -12.6 -28.9 -0.5 -28.7C11.5 -28.6 23 -19.9 26.2 -9.4Z" stroke="#15151515" fill="none" stroke-width="20"></path></g><g transform="translate(2214 748)"><path d="M43.1 -12C49.2 4.7 42.8 27.4 27.9 38.1C13.1 48.9 -10.3 47.6 -25.2 36.4C-40.1 25.2 -46.5 4 -40.9 -12.1C-35.3 -28.1 -17.7 -39 0.4 -39.2C18.5 -39.3 37.1 -28.7 43.1 -12Z" stroke="#15151515" fill="none" stroke-width="20"></path></g><g transform="translate(1553 458)"><path d="M29.6 -10.1C34 3.6 29.9 19.6 18.5 28.6C7.1 37.6 -11.6 39.7 -23 31.4C-34.5 23.2 -38.6 4.6 -33.6 -10.1C-28.5 -24.8 -14.3 -35.7 -0.8 -35.4C12.7 -35.2 25.3 -23.8 29.6 -10.1Z" stroke="#15151515" fill="none" stroke-width="20"></path></g><g transform="translate(3151 1567)"><path d="M57.3 -18.1C65.7 7.3 58.1 38.5 36.4 55.6C14.6 72.7 -21.4 75.8 -43.5 59.8C-65.7 43.7 -74 8.5 -64.4 -18.5C-54.9 -45.6 -27.4 -64.4 -1.5 -63.9C24.4 -63.4 48.9 -43.6 57.3 -18.1Z" stroke="#15151515" fill="none" stroke-width="20"></path></g><g transform="translate(2846 752)"><path d="M70.3 -20.2C81.3 11.1 73.7 51.1 49.1 69.3C24.6 87.6 -17 84.1 -45.6 63.2C-74.2 42.4 -89.8 4.1 -80 -25.5C-70.3 -55 -35.1 -75.8 -2.8 -74.9C29.6 -74 59.2 -51.4 70.3 -20.2Z" stroke="#15151515" fill="none" stroke-width="20"></path></g><g transform="translate(1767 834)"><path d="M21.2 -7.6C23.6 0.5 19 10.1 11.3 15.8C3.6 21.5 -7.2 23.2 -14.1 18.4C-21 13.6 -24 2.4 -21 -6.5C-18 -15.4 -9 -22.1 0.2 -22.2C9.4 -22.2 18.8 -15.7 21.2 -7.6Z" stroke="#15151515" fill="none" stroke-width="20"></path></g><g transform="translate(1042 304)"><path d="M44.6 -15.6C49.4 0.2 39.1 19.9 23.7 30.6C8.3 41.2 -12.1 43 -24.5 33.9C-37 24.8 -41.5 4.9 -36.1 -11.7C-30.7 -28.4 -15.3 -41.9 2.3 -42.6C19.9 -43.4 39.8 -31.4 44.6 -15.6Z" stroke="#15151515" fill="none" stroke-width="20"></path></g><g transform="translate(3736 2004)"><path d="M53.7 -17.5C61.9 7.7 55.5 37.6 37 51.1C18.5 64.5 -12 61.5 -32.9 46.1C-53.8 30.7 -65.1 2.9 -58.1 -20.8C-51 -44.5 -25.5 -64.2 -1.4 -63.8C22.8 -63.3 45.5 -42.7 53.7 -17.5Z" stroke="#15151515" fill="none" stroke-width="20"></path></g><g transform="translate(956 1881)"><path d="M14.7 -4.6C16.5 0.8 13.7 7.9 8.4 11.7C3.2 15.5 -4.5 16.1 -9.4 12.7C-14.3 9.2 -16.3 1.6 -14.3 -4.1C-12.3 -9.8 -6.1 -13.6 0.2 -13.6C6.5 -13.7 12.9 -10 14.7 -4.6Z" stroke="#15151515" fill="none" stroke-width="20"></path></g><g transform="translate(1900 1513)"><path d="M15.9 -5.4C17.8 0.9 14.8 8.6 9.7 11.9C4.6 15.3 -2.6 14.4 -7.4 10.7C-12.2 7.1 -14.6 0.8 -13 -5.1C-11.4 -10.9 -5.7 -16.3 0.6 -16.5C6.9 -16.7 13.9 -11.7 15.9 -5.4Z" stroke="#15151515" fill="none" stroke-width="20"></path></g><g transform="translate(2481 338)"><path d="M73.7 -24.3C83 4.6 69.4 40.7 41.9 61.6C14.4 82.5 -26.9 88.2 -54.3 69.5C-81.6 50.9 -95 7.8 -83.6 -24C-72.3 -55.9 -36.1 -76.5 -2 -75.9C32.2 -75.2 64.4 -53.3 73.7 -24.3Z" stroke="#15151515" fill="none" stroke-width="20"></path></g><g transform="translate(3573 1224)"><path d="M45.9 -13.7C52.8 6.4 47.2 31.8 30.7 44.2C14.3 56.6 -13 56 -29.7 43.3C-46.5 30.5 -52.7 5.7 -46 -14.1C-39.3 -33.9 -19.6 -48.7 -0.1 -48.6C19.5 -48.6 39 -33.8 45.9 -13.7Z" stroke="#15151515" fill="none" stroke-width="20"></path></g><g transform="translate(3466 1728)"><path d="M51.7 -15.3C59.4 6.7 52.6 34.9 34.7 47.9C16.8 61 -12.2 58.8 -31.2 44.6C-50.1 30.4 -59.1 4.2 -52.2 -16.8C-45.4 -37.7 -22.7 -53.2 -0.3 -53.1C22 -53 44.1 -37.3 51.7 -15.3Z" stroke="#15151515" fill="none" stroke-width="20"></path></g><g transform="translate(3495 259)"><path d="M33.3 -11.7C37.7 2.8 32.1 19.6 19.7 29C7.4 38.5 -11.8 40.5 -23.3 32.1C-34.8 23.7 -38.7 4.9 -33.5 -10.6C-28.4 -26.1 -14.2 -38.3 0.1 -38.3C14.5 -38.4 28.9 -26.2 33.3 -11.7Z" stroke="#15151515" fill="none" stroke-width="20"></path></g><g transform="translate(239 1346)"><path d="M60.4 -18.2C68.5 5.3 58.6 36.2 37.9 50.9C17.1 65.7 -14.4 64.5 -33.2 49.8C-52 35.2 -58 7.2 -50.3 -15.7C-42.7 -38.7 -21.3 -56.5 2.4 -57.3C26.1 -58.1 52.3 -41.8 60.4 -18.2Z" stroke="#15151515" fill="none" stroke-width="20"></path></g><g transform="translate(1173 1538)"><path d="M45.5 -14.9C51.9 5 45.2 29 28.8 41.4C12.3 53.8 -13.9 54.5 -31.7 41.9C-49.6 29.4 -59 3.6 -52.4 -16.7C-45.7 -36.9 -22.8 -51.6 -1.7 -51C19.5 -50.5 39.1 -34.8 45.5 -14.9Z" stroke="#15151515" fill="none" stroke-width="20"></path></g><g transform="translate(3793 682)"><path d="M15.8 -6.1C18 1.5 15.5 9.7 9.5 14.3C3.5 19 -6 20.2 -11.8 16C-17.7 11.8 -19.8 2.3 -17.3 -5.9C-14.7 -14.1 -7.3 -21 -0.3 -20.9C6.8 -20.9 13.7 -13.8 15.8 -6.1Z" stroke="#15151515" fill="none" stroke-width="20"></path></g><g transform="translate(2819 61)"><path d="M113.7 -37.1C128.2 7.7 107.6 63.7 69.3 90.4C31 117 -25.1 114.4 -59.5 87.9C-94 61.5 -106.9 11.3 -93.4 -32.2C-79.9 -75.7 -39.9 -112.5 4.8 -114.1C49.6 -115.6 99.2 -82 113.7 -37.1Z" stroke="#15151515" fill="none" stroke-width="20"></path></g><g transform="translate(2173 1878)"><path d="M101.7 -32.5C114.8 7.3 96.7 57.8 59.7 85.4C22.7 113.1 -33.2 117.9 -66.3 93.4C-99.4 68.8 -109.6 15 -94.7 -27.3C-79.8 -69.6 -39.9 -100.2 2.2 -100.9C44.3 -101.6 88.6 -72.4 101.7 -32.5Z" stroke="#15151515" fill="none" stroke-width="20"></path></g><g transform="translate(439 1905)"><path d="M78.4 -23.9C91.2 13.9 84 59.8 56.3 80.6C28.7 101.4 -19.4 97.1 -52.5 72.9C-85.7 48.6 -104 4.4 -92.8 -31.3C-81.6 -67 -40.8 -94.3 -4 -93C32.8 -91.7 65.6 -61.8 78.4 -23.9Z" stroke="#15151515" fill="none" stroke-width="20"></path></g><g transform="translate(1171 991)"><path d="M82.5 -26C94.6 10.5 83.7 55.4 55.2 76.1C26.7 96.9 -19.4 93.5 -51.6 70.3C-83.7 47.1 -101.9 4 -91 -30.9C-80.1 -65.7 -40 -92.5 -2.4 -91.7C35.2 -90.9 70.4 -62.6 82.5 -26Z" stroke="#15151515" fill="none" stroke-width="20"></path></g><g transform="translate(841 1077)"><path d="M59 -19.5C67.7 7.5 59.9 39.6 39.6 54.2C19.4 68.8 -13.2 65.9 -33.8 50.1C-54.4 34.3 -62.9 5.6 -55.2 -20C-47.6 -45.6 -23.8 -68 0.7 -68.2C25.2 -68.4 50.4 -46.5 59 -19.5Z" stroke="#15151515" fill="none" stroke-width="20"></path></g><g transform="translate(2666 1064)"><path d="M88.5 -25.2C100.4 7.9 85.9 53 54.6 75.9C23.4 98.8 -24.6 99.3 -55.2 76.8C-85.8 54.4 -99.1 8.9 -87 -24.4C-74.9 -57.7 -37.5 -78.9 0.4 -79C38.3 -79.1 76.6 -58.2 88.5 -25.2Z" stroke="#15151515" fill="none" stroke-width="20"></path></g><g transform="translate(1942 295)"><path d="M26.5 -9.8C29.5 0.5 23.6 12.4 14.3 19C5 25.7 -7.8 27 -16.6 21C-25.4 15 -30.2 1.8 -26.8 -9.1C-23.4 -19.9 -11.7 -28.5 0 -28.5C11.8 -28.5 23.6 -20 26.5 -9.8Z" stroke="#15151515" fill="none" stroke-width="20"></path></g><g transform="translate(1680 2139)"><path d="M21.2 -7.3C23.8 0.9 19.4 10.8 12.2 15.9C5 20.9 -5.2 21 -12.3 16C-19.4 11 -23.6 1 -21 -7.2C-18.5 -15.4 -9.2 -21.9 0.1 -21.9C9.4 -21.9 18.7 -15.5 21.2 -7.3Z" stroke="#15151515" fill="none" stroke-width="20"></path></g><g transform="translate(2759 1973)"><path d="M78.7 -24.6C88.7 5.4 74.5 44.2 47.3 63.6C20.1 83 -20.1 83 -46.8 63.8C-73.4 44.6 -86.5 6.1 -76.5 -23.9C-66.4 -53.9 -33.2 -75.5 0.5 -75.6C34.3 -75.8 68.6 -54.6 78.7 -24.6Z" stroke="#15151515" fill="none" stroke-width="20"></path></g><g transform="translate(48 2111)"><path d="M54.4 -19.8C60.9 2.5 50.2 28.4 30.8 42.4C11.5 56.5 -16.4 58.7 -35.2 45.7C-54.1 32.7 -63.9 4.4 -56.5 -19.1C-49.1 -42.6 -24.6 -61.2 -0.3 -61.1C23.9 -61 47.8 -42.2 54.4 -19.8Z" stroke="#15151515" fill="none" stroke-width="20"></path></g><g transform="translate(39 423)"><path d="M46.9 -14.1C53.4 4.9 46.3 29.4 29.1 42.4C12 55.4 -15.2 56.9 -30.9 44.9C-46.6 32.9 -50.9 7.5 -43.8 -12.3C-36.8 -32 -18.4 -46.1 0.9 -46.4C20.2 -46.7 40.3 -33.2 46.9 -14.1Z" stroke="#15151515" fill="none" stroke-width="20"></path></g><g transform="translate(3313 2095)"><path d="M23 -8.6C26.1 2.1 22.4 13.9 13.5 21C4.5 28.1 -9.7 30.5 -18 24.5C-26.3 18.5 -28.8 4.2 -24.8 -7.7C-20.8 -19.5 -10.4 -28.9 -0.2 -28.8C9.9 -28.7 19.9 -19.2 23 -8.6Z" stroke="#15151515" fill="none" stroke-width="20"></path></g><g transform="translate(1572 1348)"><path d="M64.1 -18.3C73.5 8.1 65 42.9 42 60.1C19.1 77.3 -18.3 76.9 -41 59.6C-63.8 42.3 -72 8.1 -62.8 -18.1C-53.5 -44.3 -26.7 -62.5 0.3 -62.6C27.4 -62.7 54.7 -44.7 64.1 -18.3Z" stroke="#15151515" fill="none" stroke-width="20"></path></g><g transform="translate(3290 973)"><path d="M20.4 -6C23.2 2.1 20.1 12.8 12.9 18.2C5.6 23.6 -5.9 23.7 -12.5 18.6C-19.2 13.4 -21.1 3 -18.2 -5.2C-15.3 -13.4 -7.7 -19.4 0.5 -19.5C8.8 -19.7 17.5 -14.1 20.4 -6Z" stroke="#15151520" fill="none" stroke-width="20"></path></g><g transform="translate(791 1430)"><path d="M41 -12.5C46.9 4.8 41.2 26.8 27 37C12.9 47.3 -9.7 45.8 -26.6 34.1C-43.5 22.4 -54.7 0.5 -49.3 -16.1C-44 -32.8 -22 -44.1 -2.2 -43.4C17.6 -42.6 35.1 -29.9 41 -12.5Z" stroke="#15151520" fill="none" stroke-width="20"></path></g><g transform="translate(1328 1969)"><path d="M54.8 -17.9C61.8 3.7 51.9 30.8 32.7 44.6C13.5 58.5 -15 59.2 -34.5 45.5C-54 31.8 -64.5 3.7 -57.3 -18.2C-50.1 -40.2 -25 -56 -0.6 -55.8C23.9 -55.6 47.8 -39.5 54.8 -17.9Z" stroke="#15151520" fill="none" stroke-width="20"></path></g><g transform="translate(154 923)"><path d="M51.4 -16.4C59.1 7 52.7 35.3 34.7 48.5C16.8 61.7 -12.7 59.9 -31.8 45.6C-50.9 31.3 -59.6 4.5 -52.6 -18C-45.5 -40.5 -22.8 -58.8 -0.5 -58.7C21.8 -58.5 43.7 -39.9 51.4 -16.4Z" stroke="#15151520" fill="none" stroke-width="20"></path></g><g transform="translate(2023 1194)"><path d="M57.4 -20.3C65.5 6.3 57.1 36.7 36.7 51.8C16.3 67 -16.2 66.9 -39.9 50.7C-63.6 34.4 -78.7 2 -70.6 -24.6C-62.5 -51.3 -31.2 -72.1 -3.3 -71C24.6 -69.9 49.3 -47 57.4 -20.3Z" stroke="#15151520" fill="none" stroke-width="20"></path></g><g transform="translate(787 40)"><path d="M21.6 -8C24.2 1.2 20.1 11.6 12 17.7C3.9 23.9 -8.1 25.8 -15.6 20.6C-23.1 15.3 -26 3 -22.7 -7.1C-19.3 -17.2 -9.6 -25 -0.1 -25C9.5 -24.9 18.9 -17.1 21.6 -8Z" stroke="#15151520" fill="none" stroke-width="20"></path></g><g transform="translate(2438 2126)"><path d="M20.5 -6.4C23.5 2.4 20.6 13.3 13.8 18C7.1 22.7 -3.5 21.1 -10.5 15.7C-17.5 10.3 -20.9 1.2 -18.5 -6.7C-16.2 -14.7 -8.1 -21.4 0.4 -21.6C8.8 -21.7 17.6 -15.1 20.5 -6.4Z" stroke="#15151530" fill="none" stroke-width="20"></path></g><g transform="translate(2617 1561)"><path d="M45.2 -15.1C52.2 6.6 46.8 31.9 30.3 44.6C13.7 57.4 -14.2 57.6 -32.6 44.3C-51 31.1 -60 4.3 -53 -17.4C-46 -39.2 -23 -56 -1.9 -55.4C19.2 -54.8 38.3 -36.7 45.2 -15.1Z" stroke="#15151530" fill="none" stroke-width="20"></path></g><g transform="translate(3457 651)"><path d="M43.7 -11.8C49.6 3.7 42.3 25.9 27.9 35.7C13.6 45.5 -7.8 42.8 -21 32.4C-34.3 21.9 -39.3 3.8 -34.5 -10.5C-29.6 -24.7 -14.8 -35 2.1 -35.6C19 -36.3 37.9 -27.4 43.7 -11.8Z" stroke="#15151530" fill="none" stroke-width="20"></path></g><g transform="translate(12 22)"><path d="M23.1 -7.4C26.2 2 22.4 13.8 14.3 19.7C6.2 25.6 -6.3 25.7 -14.6 19.7C-22.9 13.8 -27.1 1.8 -24 -7.6C-20.8 -17.1 -10.4 -24 -0.2 -23.9C10 -23.9 20 -16.8 23.1 -7.4Z" stroke="#15151530" fill="none" stroke-width="20"></path></g><g transform="translate(1573 83)"><path d="M16.5 -4.9C18.7 1.5 16.1 10 10.6 13.8C5.2 17.5 -3.1 16.6 -8.7 12.4C-14.4 8.2 -17.4 0.8 -15.5 -5.2C-13.6 -11.2 -6.8 -15.7 0.2 -15.8C7.1 -15.8 14.2 -11.4 16.5 -4.9Z" stroke="#15151530" fill="none" stroke-width="20"></path></g><g transform="translate(2311 36)"><path d="M36.3 -12.3C40.8 2.2 34.1 19.9 21.9 28.4C9.7 36.9 -8 36.1 -20.1 27.4C-32.2 18.6 -38.7 2 -34.5 -12.2C-30.2 -26.4 -15.1 -38 0.4 -38.1C15.8 -38.2 31.7 -26.8 36.3 -12.3Z" stroke="#15151530" fill="none" stroke-width="20"></path></g><g transform="translate(21 1675)"><path d="M81.3 -25.6C91.5 5.1 76.4 44.7 48.2 64.9C19.9 85.1 -21.5 85.9 -50.9 65.6C-80.3 45.3 -97.7 3.9 -87.2 -27.1C-76.7 -58.2 -38.4 -79 -1.4 -78.5C35.5 -78 71.1 -56.3 81.3 -25.6Z" stroke="#15151530" fill="none" stroke-width="20"></path></g><g transform="translate(803 663)"><path d="M32.5 -10.5C36.9 2.7 31.4 19.1 19.7 27.8C8 36.4 -9.8 37.2 -21.7 28.8C-33.6 20.4 -39.6 2.8 -35 -10.8C-30.4 -24.4 -15.2 -33.9 -0.5 -33.7C14.1 -33.5 28.2 -23.6 32.5 -10.5Z" stroke="#15151530" fill="none" stroke-width="20"></path></g><g transform="translate(1624 1784)"><path d="M70.3 -24.8C79.5 5.3 67.2 40.5 42.6 58.3C18 76.1 -19 76.5 -41.4 59.6C-63.8 42.7 -71.6 8.5 -62.3 -21.9C-53 -52.3 -26.5 -78.7 2.1 -79.4C30.6 -80.1 61.2 -54.9 70.3 -24.8Z" stroke="#15151530" fill="none" stroke-width="20"></path></g><g transform="translate(3800 1604)"><path d="M89.6 -28.4C102.3 9.9 89.2 57.3 58.7 79.1C28.2 100.8 -19.7 96.9 -51.6 73.2C-83.5 49.5 -99.4 6 -88.2 -30.4C-76.9 -66.8 -38.5 -96.1 0 -96.1C38.4 -96.1 76.9 -66.8 89.6 -28.4Z" stroke="#15151530" fill="none" stroke-width="20"></path></g><g transform="translate(3835 86)"><path d="M98.1 -31.6C110.4 6.1 92.2 53.9 55.8 81.4C19.5 108.9 -35 116 -70.4 91.6C-105.7 67.1 -122 11.1 -107.1 -30.1C-92.2 -71.3 -46.1 -97.7 -1.6 -97.2C42.9 -96.7 85.7 -69.2 98.1 -31.6Z" stroke="#15151530" fill="none" stroke-width="20"></path></g><g transform="translate(1242 625)"><path d="M108.3 -35.2C121.4 5.3 100.2 57 61.9 84.6C23.7 112.2 -31.6 115.9 -65.7 91C-99.7 66.1 -112.6 12.7 -98.1 -29.7C-83.7 -72 -41.8 -103.3 2.9 -104.3C47.6 -105.2 95.1 -75.8 108.3 -35.2Z" stroke="#15151530" fill="none" stroke-width="20"></path></g><g transform="translate(496 1075)"><path d="M57.8 -17.7C66.2 6.9 58.1 37.8 39.2 50.8C20.3 63.9 -9.5 58.9 -31 43.2C-52.5 27.4 -65.9 0.8 -59.3 -21.2C-52.8 -43.3 -26.4 -60.8 -0.8 -60.5C24.7 -60.3 49.5 -42.2 57.8 -17.7Z" stroke="#15151530" fill="none" stroke-width="20"></path></g><g transform="translate(3232 24)"><path d="M77.8 -26.1C89.8 11.6 80.8 55.2 52.8 76.4C24.8 97.6 -22.1 96.4 -52.6 73.9C-83.1 51.4 -97 7.7 -85.5 -29.4C-74 -66.5 -37 -97 -2 -96.3C32.9 -95.6 65.8 -63.9 77.8 -26.1Z" stroke="#15151530" fill="none" stroke-width="20"></path></g><g transform="translate(1244 13)"><path d="M95.3 -27.4C110.4 15.7 100.7 70.5 67.9 94.6C35.1 118.7 -20.8 112.1 -59.9 83.4C-99.1 54.8 -121.5 4 -108.7 -35.8C-96 -75.7 -48 -104.6 -4 -103.3C40.1 -102 80.1 -70.5 95.3 -27.4Z" stroke="#15151530" fill="none" stroke-width="20"></path></g></g></svg>
