<svg id="visual" viewBox="0 0 1280 900" width="1280" height="900" xmlns="http://www.w3.org/2000/svg" xmlns:xlink="http://www.w3.org/1999/xlink" version="1.1"><g transform="translate(-28.42531929312922 887.913168349832)"><path d="M148.9 -238.4C190.2 -234.2 219 -188.6 234.7 -142C250.5 -95.3 253.2 -47.7 252.9 -0.2C252.7 47.3 249.3 94.7 234.8 143.4C220.2 192.1 194.5 242.2 153.5 257.9C112.5 273.5 56.3 254.8 7.2 242.3C-41.8 229.8 -83.7 223.6 -112.2 200.7C-140.8 177.9 -156.1 138.5 -165.7 102.2C-175.3 66 -179.2 33 -184.9 -3.3C-190.7 -39.7 -198.4 -79.3 -195.4 -127C-192.4 -174.6 -178.7 -230.2 -144.4 -238.5C-110 -246.8 -55 -207.8 -0.6 -206.8C53.8 -205.7 107.7 -242.7 148.9 -238.4" fill="#2b7365"></path></g></svg>