<svg id="visual" viewBox="0 0 1280 900" width="1280" height="900" xmlns="http://www.w3.org/2000/svg" xmlns:xlink="http://www.w3.org/1999/xlink" version="1.1"><g transform="translate(1244.4298068372186 885.1728752421967)"><path d="M108.1 -179C143.9 -166.6 179.3 -145.3 216.3 -114C253.2 -82.7 291.6 -41.3 292.9 0.7C294.2 42.8 258.4 85.7 231.5 134.4C204.6 183.1 186.7 237.7 149.6 245.8C112.5 253.9 56.3 215.4 5.6 205.7C-45 195.9 -90 214.9 -114.4 199.4C-138.7 184 -142.4 134.2 -149.8 95.2C-157.1 56.3 -168.1 28.1 -185.7 -10.2C-203.3 -48.5 -227.7 -97 -220.5 -136.3C-213.3 -175.5 -174.7 -205.5 -132.7 -214.3C-90.7 -223 -45.3 -210.5 -4.6 -202.6C36.2 -194.6 72.3 -191.3 108.1 -179" fill="#2b7365"></path></g></svg>