<svg id="visual" viewBox="0 0 1280 900" width="1280" height="900" xmlns="http://www.w3.org/2000/svg" xmlns:xlink="http://www.w3.org/1999/xlink" version="1.1"><g transform="translate(1254.1733350953564 -30.50568500233871)"><path d="M122.5 -210.3C153.9 -193.9 171.4 -151.5 203.1 -112.1C234.9 -72.7 280.9 -36.3 280.4 -0.3C279.8 35.7 232.6 71.3 192.1 95.7C151.7 120.1 118 133.1 87.1 171.5C56.3 209.9 28.1 273.7 -3.3 279.4C-34.7 285 -69.3 232.6 -110.3 200C-151.3 167.4 -198.6 154.7 -217.3 124.7C-236 94.7 -226 47.3 -226.1 -0.1C-226.3 -47.5 -236.5 -95 -215.5 -120.8C-194.4 -146.7 -141.9 -150.8 -100.8 -161.6C-59.7 -172.3 -29.8 -189.7 7.8 -203.2C45.5 -216.8 91 -226.6 122.5 -210.3" fill="#2b7365"></path></g></svg>