<svg id="visual" viewBox="0 0 1280 900" width="1280" height="900" xmlns="http://www.w3.org/2000/svg" xmlns:xlink="http://www.w3.org/1999/xlink" version="1.1"><g transform="translate(1.6277660760625707 -33.765765982556985)"><path d="M112.1 -191.8C138.5 -178.9 148.5 -135.2 172.9 -98.1C197.3 -61 236.2 -30.5 246.7 6.1C257.2 42.7 239.5 85.3 210.3 114.2C181.1 143.1 140.6 158.1 103.6 185.8C66.7 213.5 33.3 253.7 -4.8 262.1C-43 270.5 -86 247 -130 223.4C-174 199.8 -219.1 176.1 -232.4 138.9C-245.8 101.7 -227.4 50.8 -232.1 -2.7C-236.8 -56.2 -264.5 -112.5 -247.6 -143.5C-230.7 -174.6 -169.1 -180.4 -120.4 -180.4C-71.7 -180.4 -35.8 -174.6 3.5 -180.6C42.8 -186.7 85.7 -204.6 112.1 -191.8" fill="#2b7365"></path></g></svg>